<?xml version="1.0" encoding="UTF-8"?>
<svg id="Capa_1" data-name="Capa 1" xmlns="http://www.w3.org/2000/svg" viewBox="0 0 638 422.73">
  <defs>
    <style>
      .cls-1 {
        fill: #e73a39;
      }
    </style>
  </defs>
  <path class="cls-1" d="M0,420.07c6.88-19.97,13.78-39.92,20.63-59.9,3.31-9.67,6.71-19.31,9.67-29.12,1.34-4.45,3.52-5.93,7.5-5.85,10.43,.21,20.89-.3,31.31,.2,6.38,.3,9.55-2.55,11.77-9.2,21.54-64.53,43.31-128.96,65-193.42,12.89-38.32,25.85-76.6,38.53-115.01C186.24,2.17,188.64-.06,194.05,.02c22.36,.33,44.73,.25,67.1,.05,4.53-.04,6.72,1.74,8.36,6.62,34.19,101.91,68.55,203.76,102.86,305.63,.52,1.55,.88,3.17,1.47,5.36h-103.74c-13.82-42.82-27.54-85.34-41.86-129.72-1.61,4.3-2.65,6.81-3.5,9.39-23.91,72.53-47.87,145.04-71.56,217.67-1.96,6.01-4.49,7.78-10.06,7.73-44.94-.45-89.89-.47-134.83-.66-2.76-.01-5.51-.36-8.27-.56,0-.48,0-.97,0-1.45Z"/>
  <path class="cls-1" d="M638,421.38c-2.89,.25-4.97,.57-7.04,.58-45.36,.22-90.72,.35-136.08,.71-4.41,.03-6.77-1.19-8.46-6.22-45.62-135.96-91.4-271.84-137.13-407.75-.73-2.18-1.16-4.49-1.99-7.73,2.95-.32,5.16-.78,7.38-.78,30.03-.05,60.07,.15,90.1-.19,5.75-.06,8.07,2.43,10.01,8.19,34.31,102.37,68.88,204.63,103.11,307.04,2.55,7.62,5.99,10.58,13.08,10.18,10.2-.58,20.45-.43,30.66,.09,2.29,.12,5.72,2.45,6.51,4.72,9.83,28.28,19.27,56.73,28.77,85.15,.51,1.51,.59,3.21,1.09,6.02Z"/>
</svg>